<?xml version="1.0" encoding="UTF-8" standalone="no"?>
<svg width="1348px" height="577px" viewBox="0 0 1348 577" version="1.1" xmlns="http://www.w3.org/2000/svg" xmlns:xlink="http://www.w3.org/1999/xlink" xmlns:sketch="http://www.bohemiancoding.com/sketch/ns">
    <!-- Generator: Sketch 3.3 (11970) - http://www.bohemiancoding.com/sketch -->
    <title>饼图</title>
    <desc>Created with Sketch.</desc>
    <defs></defs>
    <g id="Page-1" stroke="none" stroke-width="1" fill="none" fill-rule="evenodd" sketch:type="MSPage">
        <g id="饼图" sketch:type="MSArtboardGroup">
            <g id="3%" sketch:type="MSLayerGroup" transform="translate(1032.000000, 158.000000)">
                <path d="M98,196 C152.123905,196 196,152.123905 196,98 C196,43.8760945 152.123905,0 98,0 C43.8760945,0 0,43.8760945 0,98 C0,152.123905 43.8760945,196 98,196 L98,196 L98,196 Z M98,180 C52.7126505,180 16,143.287349 16,98 C16,52.7126505 52.7126505,16 98,16 C143.287349,16 180,52.7126505 180,98 C180,143.287349 143.287349,180 98,180 L98,180 L98,180 Z" id="100" fill="#E2E8EC" sketch:type="MSShapeGroup"></path>
                <path d="M0.812339376,82.9750221 C0.27240009,87.1545408 0,91.3837746 0,95.6446825 C0,100.062961 3.581722,103.644683 8,103.644683 C12.418278,103.644683 16,100.062961 16,95.6446825 C16,92.0696529 16.2282978,88.5251438 16.6804735,85.0249779 C17.2465532,80.6431137 14.1532486,76.6320126 9.77138438,76.0659329 C5.38952013,75.4998533 1.37841906,78.5931578 0.812339376,82.9750221 L0.812339376,82.9750221 Z" id="3" fill="#8072DB" sketch:type="MSShapeGroup"></path>
            </g>
            <g id="35%" sketch:type="MSLayerGroup" transform="translate(424.500000, 158.000000)">
                <path d="M98,196 C152.123905,196 196,152.123905 196,98 C196,43.8760945 152.123905,0 98,0 C43.8760945,0 0,43.8760945 0,98 C0,152.123905 43.8760945,196 98,196 L98,196 Z M98,180 C52.7126505,180 16,143.287349 16,98 C16,52.7126505 52.7126505,16 98,16 C143.287349,16 180,52.7126505 180,98 C180,143.287349 143.287349,180 98,180 L98,180 Z" id="100" fill="#E2E8EC" sketch:type="MSShapeGroup"></path>
                <path d="M43.6344172,180.176945 C59.4049669,190.446802 77.8247257,196 97.0479741,196 C151.17188,196 195.047974,152.123905 195.047974,98 C195.047974,93.581722 191.466252,90 187.047974,90 C182.629696,90 179.047974,93.581722 179.047974,98 C179.047974,143.287349 142.335324,180 97.0479741,180 C80.9484832,180 65.5576336,175.359959 52.3655828,166.769233 C48.6631453,164.358188 43.7071887,165.405069 41.2961439,169.107506 C38.8850991,172.809944 39.9319797,177.7659 43.6344172,180.176945 L43.6344172,180.176945 Z" id="35" fill="#FFC653" sketch:type="MSShapeGroup"></path>
            </g>
            <g id="48%" sketch:type="MSLayerGroup" transform="translate(120.000000, 158.000000)">
                <path d="M98.8280222,196 C152.951928,196 196.828022,152.123905 196.828022,98 C196.828022,43.8760945 152.951928,0 98.8280222,0 C44.7041168,0 0.828022248,43.8760945 0.828022248,98 C0.828022248,152.123905 44.7041168,196 98.8280222,196 L98.8280222,196 Z M98.8280222,180 C53.5406728,180 16.8280222,143.287349 16.8280222,98 C16.8280222,52.7126505 53.5406728,16 98.8280222,16 C144.115372,16 180.828022,52.7126505 180.828022,98 C180.828022,143.287349 144.115372,180 98.8280222,180 L98.8280222,180 Z" id="100" fill="#E2E8EC" sketch:type="MSShapeGroup"></path>
                <path d="M196.484067,98 C196.484067,43.8760945 152.607972,0 98.4840667,0 C53.2687494,0 14.2379937,30.8736951 3.41127609,74.1390413 C2.33871838,78.4251585 4.94382306,82.7692228 9.22994023,83.8417805 C13.5160574,84.9143382 17.8601217,82.3092335 18.9326794,78.0231163 C27.987668,41.8378912 60.6521229,16 98.4840667,16 C143.771416,16 180.484067,52.7126505 180.484067,98 C180.484067,102.418278 184.065789,106 188.484067,106 C192.902345,106 196.484067,102.418278 196.484067,98 L196.484067,98 Z" id="48" fill="#FF5353" sketch:type="MSShapeGroup"></path>
            </g>
            <g id="14%" sketch:type="MSLayerGroup" transform="translate(727.500000, 158.000000)">
                <path d="M98,196 C152.123905,196 196,152.123905 196,98 C196,43.8760945 152.123905,0 98,0 C43.8760945,0 0,43.8760945 0,98 C0,152.123905 43.8760945,196 98,196 L98,196 Z M98,180 C52.7126505,180 16,143.287349 16,98 C16,52.7126505 52.7126505,16 98,16 C143.287349,16 180,52.7126505 180,98 C180,143.287349 143.287349,180 98,180 L98,180 Z" id="100" fill="#E2E8EC" sketch:type="MSShapeGroup"></path>
                <path d="M0,97 C0,129.452538 15.8990124,159.240463 42.0216267,177.448577 C45.6462799,179.975051 50.6327536,179.0848 53.1592273,175.460147 C55.685701,171.835494 54.7954506,166.84902 51.1707974,164.322546 C29.2961998,149.075406 16,124.164035 16,97 C16,92.581722 12.418278,89 8,89 C3.581722,89 0,92.581722 0,97 L0,97 Z" id="14" fill="#58D7A0" sketch:type="MSShapeGroup"></path>
            </g>
            <path d="M478.233,389.828 L477.533,390.486 C478.485,391.228 479.227,391.928 479.773,392.6 L480.459,391.9 C479.857,391.214 479.115,390.528 478.233,389.828 L478.233,389.828 Z M476.609,393.874 L476.609,394.84 L478.555,394.84 L478.555,400.384 C478.555,400.608 478.443,400.818 478.247,401.014 L478.639,401.91 C479.619,401.266 480.557,400.538 481.439,399.712 L481.159,398.648 C480.585,399.194 480.039,399.67 479.535,400.09 L479.535,393.874 L476.609,393.874 Z M481.579,395.512 L481.579,396.492 L482.349,396.492 C482.741,397.71 483.455,398.802 484.519,399.782 C483.469,400.524 482.167,401.126 480.613,401.588 L481.173,402.442 C482.811,401.938 484.197,401.28 485.317,400.44 C486.297,401.196 487.529,401.854 488.985,402.442 L489.531,401.574 C488.159,401.07 486.997,400.496 486.045,399.838 C487.067,398.886 487.795,397.752 488.243,396.436 L488.243,395.512 L481.579,395.512 Z M483.301,396.492 L487.249,396.492 C486.801,397.528 486.129,398.424 485.233,399.208 C484.309,398.41 483.665,397.5 483.301,396.492 L483.301,396.492 Z M482.657,390.108 L482.657,391.662 C482.657,392.768 482.041,393.622 480.823,394.224 L481.495,394.994 C482.923,394.182 483.651,393.034 483.651,391.55 L483.651,391.06 L486.367,391.06 L486.367,393.342 C486.367,394.168 486.787,394.588 487.655,394.588 L489.195,394.588 L489.195,393.664 L487.907,393.664 C487.543,393.664 487.361,393.482 487.361,393.132 L487.361,390.108 L482.657,390.108 Z M494.991,393.762 L494.991,394.77 L498.785,394.77 L498.785,402.428 L499.821,402.428 L499.821,394.77 L503.419,394.77 L503.419,393.762 L499.821,393.762 L499.821,389.548 L498.785,389.548 L498.785,393.762 L494.991,393.762 Z M492.247,389.702 L491.547,390.388 C492.555,391.144 493.367,391.872 493.955,392.558 L494.641,391.858 C493.997,391.13 493.199,390.416 492.247,389.702 L492.247,389.702 Z M490.609,393.846 L490.609,394.812 L492.667,394.812 L492.667,400.398 C492.667,400.622 492.555,400.818 492.345,400.986 L492.737,401.896 C493.731,401.238 494.669,400.496 495.537,399.656 L495.285,398.62 C494.697,399.18 494.137,399.656 493.633,400.076 L493.633,393.846 L490.609,393.846 Z M514.787,391.214 L514.787,395.092 L512.603,395.092 L512.603,391.214 L514.787,391.214 Z M514.787,396.058 L514.787,402.372 L515.753,402.372 L515.753,396.058 L517.419,396.058 L517.419,395.092 L515.753,395.092 L515.753,391.214 L517.041,391.214 L517.041,390.262 L510.391,390.262 L510.391,391.214 L511.623,391.214 L511.623,395.092 L510.083,395.092 L510.083,396.058 L511.609,396.058 C511.525,398.648 510.769,400.538 509.341,401.742 L510.083,402.414 C511.651,401.056 512.477,398.942 512.589,396.058 L514.787,396.058 Z M506.611,391.298 C506.261,393.328 505.547,395.134 504.455,396.702 L504.987,397.57 C505.337,397.094 505.659,396.59 505.953,396.058 L505.953,401.91 L506.877,401.91 L506.877,400.804 L509.285,400.804 L509.285,394.462 L506.695,394.462 C507.073,393.482 507.367,392.418 507.563,391.298 L509.775,391.298 L509.775,390.318 L504.931,390.318 L504.931,391.298 L506.611,391.298 Z M506.877,399.922 L506.877,395.358 L508.347,395.358 L508.347,399.922 L506.877,399.922 Z M519.603,393.86 L523.075,393.86 C522.095,396.982 520.597,399.432 518.553,401.224 L519.071,402.148 C520.667,400.846 521.983,399.096 523.005,396.884 C523.467,397.864 524.237,398.774 525.329,399.614 C524.279,400.3 522.977,400.93 521.409,401.504 L521.941,402.442 C523.635,401.784 525.063,401.056 526.211,400.244 C527.387,401.014 528.871,401.728 530.663,402.386 L531.181,401.448 C529.557,400.888 528.171,400.272 527.037,399.6 C528.185,398.62 528.941,397.528 529.319,396.324 L529.319,395.456 L523.593,395.456 C523.789,394.952 523.957,394.42 524.125,393.86 L530.943,393.86 L530.943,392.894 L524.391,392.894 C524.643,391.858 524.867,390.766 525.049,389.59 L524.027,389.464 C523.859,390.668 523.635,391.802 523.355,392.894 L520.905,392.894 L521.703,390.136 L520.709,389.968 L519.603,393.86 Z M523.761,396.38 L528.297,396.38 C527.905,397.332 527.191,398.214 526.155,399.026 C525.035,398.214 524.237,397.332 523.761,396.38 L523.761,396.38 Z M527.401,389.576 L526.729,390.234 C527.779,391.074 528.605,391.858 529.193,392.6 L529.907,391.886 C529.235,391.116 528.409,390.346 527.401,389.576 L527.401,389.576 Z M540.939,390.808 C539.987,390.808 539.217,391.074 538.629,391.62 C538.013,392.166 537.649,392.922 537.565,393.888 L538.699,393.888 C538.769,393.216 538.993,392.698 539.385,392.334 C539.763,391.97 540.281,391.802 540.953,391.802 C541.597,391.802 542.115,391.956 542.479,392.292 C542.815,392.6 542.997,393.034 542.997,393.594 C542.997,394.154 542.815,394.588 542.465,394.896 C542.115,395.19 541.611,395.344 540.939,395.344 L540.169,395.344 L540.169,396.24 L540.981,396.24 C541.681,396.24 542.213,396.394 542.605,396.73 C542.997,397.066 543.193,397.528 543.193,398.13 C543.193,398.718 542.983,399.208 542.591,399.6 C542.157,400.006 541.583,400.216 540.869,400.216 C540.239,400.216 539.721,400.034 539.301,399.698 C538.811,399.292 538.545,398.69 538.517,397.906 L537.355,397.906 C537.439,399.026 537.831,399.88 538.545,400.468 C539.147,400.944 539.917,401.196 540.869,401.196 C541.905,401.196 542.745,400.902 543.389,400.314 C544.019,399.74 544.341,398.998 544.341,398.088 C544.341,397.5 544.173,397.01 543.837,396.618 C543.529,396.226 543.081,395.946 542.493,395.764 C543.585,395.4 544.131,394.644 544.131,393.524 C544.131,392.684 543.837,392.026 543.263,391.536 C542.675,391.046 541.891,390.808 540.939,390.808 L540.939,390.808 Z M546.511,391.004 L545.979,396.52 L547.071,396.52 C547.267,396.128 547.575,395.82 547.967,395.624 C548.345,395.414 548.765,395.316 549.241,395.316 C549.969,395.316 550.543,395.526 550.949,395.974 C551.369,396.408 551.593,397.024 551.593,397.822 C551.593,398.522 551.355,399.096 550.907,399.544 C550.445,399.992 549.871,400.216 549.171,400.216 C548.555,400.216 548.037,400.062 547.645,399.768 C547.197,399.432 546.945,398.942 546.889,398.312 L545.755,398.312 C545.825,399.222 546.203,399.95 546.903,400.482 C547.519,400.958 548.275,401.196 549.157,401.196 C550.137,401.196 550.977,400.888 551.649,400.286 C552.363,399.642 552.727,398.816 552.727,397.808 C552.727,396.73 552.419,395.89 551.831,395.274 C551.243,394.672 550.473,394.378 549.521,394.378 C549.059,394.378 548.639,394.448 548.247,394.616 C547.813,394.784 547.449,395.036 547.169,395.372 L547.113,395.372 L547.449,392.026 L552.321,392.026 L552.321,391.004 L546.511,391.004 Z M563.787,395.526 C563.031,395.526 562.457,395.792 562.065,396.352 C561.701,396.828 561.533,397.472 561.533,398.27 C561.533,399.054 561.701,399.684 562.065,400.188 C562.457,400.72 563.031,401 563.787,401 C564.529,401 565.103,400.72 565.509,400.188 C565.859,399.698 566.041,399.054 566.041,398.27 C566.041,397.472 565.859,396.828 565.509,396.352 C565.103,395.792 564.529,395.526 563.787,395.526 L563.787,395.526 Z M562.583,390.808 L556.969,401.196 L557.879,401.196 L563.479,390.808 L562.583,390.808 Z M556.675,391.004 C555.919,391.004 555.345,391.27 554.953,391.83 C554.589,392.306 554.421,392.95 554.421,393.748 C554.421,394.532 554.589,395.162 554.953,395.666 C555.345,396.198 555.919,396.478 556.675,396.478 C557.417,396.478 557.991,396.198 558.397,395.666 C558.747,395.176 558.929,394.532 558.929,393.748 C558.929,392.95 558.747,392.306 558.397,391.83 C557.991,391.27 557.417,391.004 556.675,391.004 L556.675,391.004 Z M563.787,396.282 C564.207,396.282 564.515,396.478 564.725,396.884 C564.893,397.22 564.991,397.682 564.991,398.27 C564.991,398.844 564.893,399.292 564.725,399.628 C564.515,400.034 564.207,400.244 563.787,400.244 C563.353,400.244 563.045,400.034 562.849,399.642 C562.667,399.306 562.583,398.844 562.583,398.27 C562.583,397.668 562.667,397.206 562.849,396.87 C563.045,396.478 563.353,396.282 563.787,396.282 L563.787,396.282 Z M556.675,391.76 C557.095,391.76 557.403,391.956 557.599,392.362 C557.781,392.698 557.879,393.16 557.879,393.748 C557.879,394.322 557.781,394.77 557.613,395.106 C557.403,395.512 557.095,395.722 556.675,395.722 C556.241,395.722 555.933,395.512 555.737,395.12 C555.555,394.784 555.471,394.322 555.471,393.748 C555.471,393.146 555.555,392.684 555.737,392.348 C555.933,391.956 556.241,391.76 556.675,391.76 L556.675,391.76 Z" id="设计研发-35%" fill="#B3B3B3" sketch:type="MSShapeGroup"></path>
            <path d="M180.507,389.38 L179.457,389.562 C179.709,389.996 179.947,390.472 180.143,391.004 L175.019,391.004 L175.019,391.97 L177.581,391.97 L178.169,394.098 L175.299,394.098 L175.299,397.136 C175.271,399.082 174.837,400.608 174.025,401.7 L174.795,402.386 C175.761,401.07 176.265,399.32 176.321,397.136 L176.321,395.064 L186.373,395.064 L186.373,394.098 L182.957,394.098 C183.251,393.426 183.475,392.712 183.643,391.97 L186.079,391.97 L186.079,391.004 L181.165,391.004 C180.955,390.402 180.731,389.856 180.507,389.38 L180.507,389.38 Z M179.163,394.098 L178.575,391.97 L182.677,391.97 C182.537,392.712 182.299,393.426 181.991,394.098 L179.163,394.098 Z M190.615,390.15 L190.615,394.728 L198.329,394.728 L198.329,390.15 L190.615,390.15 Z M197.321,393.776 L191.623,393.776 L191.623,391.102 L197.321,391.102 L197.321,393.776 Z M193.681,396.114 L188.753,396.114 L188.753,402.19 L189.747,402.19 L189.747,401.476 L192.701,401.476 L192.701,402.19 L193.681,402.19 L193.681,396.114 Z M189.747,400.524 L189.747,397.08 L192.701,397.08 L192.701,400.524 L189.747,400.524 Z M200.191,396.114 L195.123,396.114 L195.123,402.19 L196.117,402.19 L196.117,401.476 L199.183,401.476 L199.183,402.19 L200.191,402.19 L200.191,396.114 Z M196.117,400.524 L196.117,397.08 L199.183,397.08 L199.183,400.524 L196.117,400.524 Z M208.647,395.82 L211.139,395.82 L211.139,397.71 L208.647,397.71 L208.647,395.82 Z M208.647,398.648 L211.139,398.648 L211.139,400.734 L208.647,400.734 L208.647,398.648 Z M208.647,401.7 L214.723,401.7 L214.723,400.734 L212.133,400.734 L212.133,398.648 L214.289,398.648 L214.289,397.71 L212.133,397.71 L212.133,395.82 L214.289,395.82 L214.289,394.868 L212.133,394.868 L212.133,392.964 L214.569,392.964 L214.569,391.984 L211.895,391.984 L212.273,391.844 C212.091,391.144 211.839,390.388 211.503,389.548 L210.537,389.814 C210.859,390.514 211.139,391.242 211.363,391.984 L208.829,391.984 C209.137,391.27 209.403,390.542 209.613,389.786 L208.633,389.59 C208.157,391.41 207.359,393.076 206.211,394.588 L206.547,395.652 C206.939,395.176 207.317,394.672 207.653,394.14 L207.653,402.344 L208.647,402.344 L208.647,401.7 Z M211.139,392.964 L211.139,394.868 L208.647,394.868 L208.647,392.964 L211.139,392.964 Z M206.365,395.33 C205.945,395.54 205.511,395.736 205.063,395.932 L205.063,393.104 L206.477,393.104 L206.477,392.124 L205.063,392.124 L205.063,389.534 L204.041,389.534 L204.041,392.124 L202.249,392.124 L202.249,393.104 L204.041,393.104 L204.041,396.324 C203.397,396.548 202.725,396.744 202.039,396.898 L202.291,397.906 C202.879,397.738 203.467,397.542 204.041,397.346 L204.041,400.72 C204.041,401.084 203.845,401.266 203.467,401.266 C203.103,401.266 202.711,401.238 202.319,401.196 L202.529,402.176 L203.817,402.176 C204.643,402.176 205.063,401.77 205.063,400.986 L205.063,396.94 C205.511,396.758 205.945,396.562 206.365,396.352 L206.365,395.33 Z M222.843,389.352 L221.737,389.548 C222.017,389.996 222.283,390.5 222.507,391.046 L217.299,391.046 L217.299,395.148 C217.271,397.976 216.851,400.174 216.067,401.77 L216.893,402.512 C217.803,400.664 218.279,398.214 218.335,395.148 L218.335,392.012 L228.709,392.012 L228.709,391.046 L223.613,391.046 C223.361,390.416 223.109,389.856 222.843,389.352 L222.843,389.352 Z M239.517,391.004 L234.477,397.64 L234.477,398.732 L239.503,398.732 L239.503,401 L240.595,401 L240.595,398.732 L242.219,398.732 L242.219,397.794 L240.595,397.794 L240.595,391.004 L239.517,391.004 Z M239.461,392.502 L239.503,392.502 L239.503,397.794 L235.443,397.794 L239.461,392.502 Z M246.741,390.808 C245.691,390.808 244.879,391.074 244.291,391.62 C243.745,392.11 243.479,392.726 243.479,393.454 C243.479,393.986 243.605,394.434 243.857,394.798 C244.123,395.19 244.515,395.484 245.047,395.666 L245.047,395.694 C244.515,395.82 244.081,396.114 243.717,396.562 C243.325,397.038 243.129,397.598 243.129,398.242 C243.129,399.124 243.437,399.838 244.053,400.37 C244.683,400.916 245.579,401.196 246.741,401.196 C247.889,401.196 248.785,400.916 249.429,400.37 C250.045,399.838 250.353,399.124 250.353,398.242 C250.353,397.598 250.157,397.038 249.765,396.562 C249.401,396.114 248.953,395.82 248.435,395.694 L248.435,395.666 C248.953,395.484 249.345,395.19 249.625,394.798 C249.877,394.434 250.003,393.986 250.003,393.454 C250.003,392.726 249.723,392.11 249.191,391.62 C248.603,391.074 247.777,390.808 246.741,390.808 L246.741,390.808 Z M246.741,391.746 C247.441,391.746 248.001,391.928 248.407,392.292 C248.743,392.6 248.925,393.006 248.925,393.496 C248.925,394 248.771,394.42 248.463,394.728 C248.085,395.092 247.511,395.288 246.741,395.288 C245.957,395.288 245.383,395.092 245.019,394.728 C244.711,394.42 244.557,394 244.557,393.496 C244.557,393.006 244.725,392.6 245.075,392.292 C245.467,391.928 246.027,391.746 246.741,391.746 L246.741,391.746 Z M246.741,396.184 C247.539,396.184 248.169,396.38 248.617,396.786 C249.009,397.15 249.219,397.64 249.219,398.242 C249.219,398.83 249.009,399.306 248.617,399.67 C248.169,400.062 247.553,400.258 246.741,400.258 C245.929,400.258 245.299,400.062 244.879,399.684 C244.459,399.32 244.263,398.83 244.263,398.242 C244.263,397.64 244.459,397.15 244.879,396.786 C245.313,396.38 245.929,396.184 246.741,396.184 L246.741,396.184 Z M261.287,395.526 C260.531,395.526 259.957,395.792 259.565,396.352 C259.201,396.828 259.033,397.472 259.033,398.27 C259.033,399.054 259.201,399.684 259.565,400.188 C259.957,400.72 260.531,401 261.287,401 C262.029,401 262.603,400.72 263.009,400.188 C263.359,399.698 263.541,399.054 263.541,398.27 C263.541,397.472 263.359,396.828 263.009,396.352 C262.603,395.792 262.029,395.526 261.287,395.526 L261.287,395.526 Z M260.083,390.808 L254.469,401.196 L255.379,401.196 L260.979,390.808 L260.083,390.808 Z M254.175,391.004 C253.419,391.004 252.845,391.27 252.453,391.83 C252.089,392.306 251.921,392.95 251.921,393.748 C251.921,394.532 252.089,395.162 252.453,395.666 C252.845,396.198 253.419,396.478 254.175,396.478 C254.917,396.478 255.491,396.198 255.897,395.666 C256.247,395.176 256.429,394.532 256.429,393.748 C256.429,392.95 256.247,392.306 255.897,391.83 C255.491,391.27 254.917,391.004 254.175,391.004 L254.175,391.004 Z M261.287,396.282 C261.707,396.282 262.015,396.478 262.225,396.884 C262.393,397.22 262.491,397.682 262.491,398.27 C262.491,398.844 262.393,399.292 262.225,399.628 C262.015,400.034 261.707,400.244 261.287,400.244 C260.853,400.244 260.545,400.034 260.349,399.642 C260.167,399.306 260.083,398.844 260.083,398.27 C260.083,397.668 260.167,397.206 260.349,396.87 C260.545,396.478 260.853,396.282 261.287,396.282 L261.287,396.282 Z M254.175,391.76 C254.595,391.76 254.903,391.956 255.099,392.362 C255.281,392.698 255.379,393.16 255.379,393.748 C255.379,394.322 255.281,394.77 255.113,395.106 C254.903,395.512 254.595,395.722 254.175,395.722 C253.741,395.722 253.433,395.512 253.237,395.12 C253.055,394.784 252.971,394.322 252.971,393.748 C252.971,393.146 253.055,392.684 253.237,392.348 C253.433,391.956 253.741,391.76 254.175,391.76 L254.175,391.76 Z" id="产品推广-48%" fill="#B3B3B3" sketch:type="MSShapeGroup"></path>
            <path d="M1083.727,394.35 L1085.981,394.35 L1085.981,396.688 L1083.727,396.688 L1083.727,394.35 Z M1085.981,393.44 L1083.727,393.44 L1083.727,391.074 L1085.981,391.074 L1085.981,393.44 Z M1083.713,397.598 L1085.981,397.598 L1085.981,400.762 C1085.981,401.266 1085.799,401.518 1085.449,401.518 C1085.113,401.518 1084.763,401.49 1084.371,401.462 L1084.609,402.358 L1085.729,402.358 C1086.513,402.358 1086.905,401.924 1086.905,401.084 L1086.905,390.164 L1082.817,390.164 L1082.817,396.884 C1082.803,398.844 1082.523,400.468 1081.963,401.728 L1082.719,402.428 C1083.293,401.168 1083.629,399.558 1083.713,397.598 L1083.713,397.598 Z M1089.033,396.212 L1089.369,396.212 C1089.677,397.584 1090.279,398.816 1091.175,399.908 C1090.615,400.58 1089.943,401.126 1089.145,401.56 L1089.677,402.372 C1090.517,401.924 1091.231,401.35 1091.847,400.636 C1092.491,401.266 1093.247,401.84 1094.143,402.358 L1094.647,401.504 C1093.793,401.014 1093.051,400.468 1092.421,399.852 C1093.065,398.844 1093.527,397.612 1093.793,396.17 L1093.793,395.316 L1089.033,395.316 L1089.033,391.074 L1092.771,391.074 C1092.743,392.138 1092.687,392.824 1092.589,393.132 C1092.505,393.342 1092.379,393.482 1092.211,393.538 C1092.043,393.58 1091.805,393.608 1091.469,393.608 C1091.077,393.608 1090.769,393.594 1090.531,393.594 L1090.797,394.462 L1091.931,394.462 C1092.813,394.462 1093.331,394.168 1093.499,393.594 C1093.667,393.034 1093.751,391.886 1093.751,390.15 L1088.081,390.15 L1088.081,402.414 L1089.033,402.414 L1089.033,396.212 Z M1090.237,396.212 L1092.897,396.212 C1092.645,397.318 1092.267,398.284 1091.749,399.124 C1091.035,398.256 1090.531,397.29 1090.237,396.212 L1090.237,396.212 Z M1099.995,389.52 C1099.407,390.92 1098.259,392.096 1096.579,393.062 L1097.195,393.874 C1097.839,393.482 1098.413,393.048 1098.945,392.572 C1099.617,393.16 1100.345,393.692 1101.129,394.154 C1099.589,394.77 1097.811,395.218 1095.781,395.498 L1096.243,396.45 C1098.511,396.1 1100.513,395.526 1102.221,394.742 C1103.957,395.61 1105.931,396.17 1108.143,396.422 L1108.605,395.484 C1106.659,395.288 1104.895,394.854 1103.313,394.182 C1104.601,393.454 1105.693,392.572 1106.589,391.536 L1106.589,390.724 L1100.485,390.724 C1100.681,390.388 1100.863,390.038 1101.017,389.66 L1099.995,389.52 Z M1102.207,393.664 C1101.269,393.174 1100.401,392.586 1099.617,391.9 L1099.799,391.676 L1105.147,391.676 C1104.321,392.432 1103.341,393.104 1102.207,393.664 L1102.207,393.664 Z M1101.353,395.75 C1101.353,396.31 1101.297,396.842 1101.185,397.346 L1096.733,397.346 L1096.733,398.256 L1100.905,398.256 C1100.793,398.536 1100.639,398.802 1100.471,399.054 C1099.743,400.076 1098.217,400.93 1095.921,401.602 L1096.593,402.428 C1099.169,401.616 1100.807,400.566 1101.521,399.306 C1101.703,398.97 1101.857,398.62 1101.969,398.256 L1106.113,398.256 C1106.071,399.656 1105.945,400.524 1105.735,400.86 C1105.511,401.196 1104.993,401.378 1104.153,401.392 L1102.501,401.322 L1102.753,402.232 C1103.397,402.26 1103.943,402.288 1104.391,402.288 C1105.385,402.288 1106.085,402.05 1106.491,401.588 C1106.897,401.126 1107.107,399.712 1107.135,397.346 L1102.207,397.346 C1102.291,396.842 1102.347,396.31 1102.347,395.75 L1101.353,395.75 Z M1111.139,390.094 L1111.139,393.496 L1115.409,393.496 L1115.409,390.094 L1111.139,390.094 Z M1114.485,392.642 L1112.049,392.642 L1112.049,390.962 L1114.485,390.962 L1114.485,392.642 Z M1116.963,390.094 L1116.963,393.496 L1121.317,393.496 L1121.317,390.094 L1116.963,390.094 Z M1120.407,392.642 L1117.887,392.642 L1117.887,390.962 L1120.407,390.962 L1120.407,392.642 Z M1110.005,394.896 L1110.005,395.792 L1113.869,395.792 C1112.889,396.632 1111.517,397.318 1109.725,397.85 L1110.187,398.676 C1110.579,398.55 1110.957,398.424 1111.335,398.284 L1111.335,402.414 L1112.217,402.414 L1112.217,401.812 L1114.611,401.812 L1114.611,402.414 L1115.507,402.414 L1115.507,398.004 L1111.993,398.004 C1113.309,397.416 1114.359,396.688 1115.143,395.792 L1117.509,395.792 C1118.209,396.646 1119.245,397.388 1120.589,398.004 L1116.851,398.004 L1116.851,402.414 L1117.747,402.414 L1117.747,401.812 L1120.365,401.812 L1120.365,402.414 L1121.261,402.414 L1121.261,398.298 C1121.569,398.41 1121.891,398.536 1122.241,398.648 L1122.647,397.794 C1120.841,397.304 1119.483,396.632 1118.573,395.792 L1122.353,395.792 L1122.353,394.896 L1120.421,394.896 C1120.197,394.462 1119.945,394.056 1119.651,393.664 L1118.797,393.944 C1119.021,394.224 1119.231,394.546 1119.427,394.896 L1115.815,394.896 C1116.011,394.56 1116.193,394.224 1116.333,393.86 L1115.367,393.762 C1115.199,394.154 1114.989,394.532 1114.723,394.896 L1110.005,394.896 Z M1112.217,400.944 L1112.217,398.844 L1114.611,398.844 L1114.611,400.944 L1112.217,400.944 Z M1117.747,400.944 L1117.747,398.844 L1120.365,398.844 L1120.365,400.944 L1117.747,400.944 Z M1124.901,389.702 L1124.201,390.36 C1125.223,391.172 1126.021,391.914 1126.609,392.614 L1127.323,391.9 C1126.665,391.172 1125.853,390.444 1124.901,389.702 L1124.901,389.702 Z M1133.077,402.148 L1136.325,402.148 L1136.577,401.14 C1136.199,401.168 1135.667,401.182 1134.995,401.196 C1134.295,401.21 1133.609,401.224 1132.937,401.224 C1131.859,401.224 1130.963,401.21 1130.235,401.196 C1129.423,401.168 1128.793,401.056 1128.373,400.86 C1127.981,400.678 1127.631,400.384 1127.295,399.978 C1127.183,399.852 1127.085,399.754 1126.973,399.67 L1126.973,394.42 L1124.033,394.42 L1124.033,395.344 L1126.035,395.344 L1126.035,399.6 C1125.447,399.852 1124.789,400.566 1124.033,401.742 L1124.789,402.428 C1125.573,401.14 1126.133,400.496 1126.469,400.496 C1126.637,400.496 1126.819,400.608 1127.001,400.846 C1127.435,401.35 1127.925,401.7 1128.457,401.868 C1129.017,402.022 1129.745,402.106 1130.627,402.12 C1131.509,402.134 1132.321,402.148 1133.077,402.148 L1133.077,402.148 Z M1128.891,390.36 L1128.891,391.284 L1135.317,391.284 L1135.317,390.36 L1128.891,390.36 Z M1128.037,393.538 L1128.037,394.504 L1130.977,394.504 C1129.885,397.262 1129.059,398.732 1128.471,398.9 L1128.723,399.782 C1131.215,399.544 1133.231,399.25 1134.771,398.886 C1134.939,399.278 1135.093,399.698 1135.233,400.132 L1136.129,399.894 C1135.541,398.242 1134.869,396.772 1134.113,395.484 L1133.287,395.75 C1133.693,396.478 1134.071,397.234 1134.407,398.018 C1133.217,398.298 1131.719,398.55 1129.899,398.746 C1130.515,397.906 1131.201,396.492 1131.971,394.504 L1136.339,394.504 L1136.339,393.538 L1128.037,393.538 Z M1142.709,399.6 C1141.323,400.132 1139.699,400.552 1137.851,400.86 L1137.977,401.868 C1139.741,401.532 1141.323,401.098 1142.709,400.566 L1142.709,399.6 Z M1140.175,389.52 C1139.657,391.172 1139.055,392.642 1138.355,393.93 C1138.229,394.112 1138.089,394.238 1137.935,394.308 L1138.187,395.232 C1138.943,395.106 1139.685,394.966 1140.413,394.826 C1139.713,396.17 1139.111,397.136 1138.621,397.696 C1138.495,397.808 1138.341,397.906 1138.159,397.976 L1138.439,398.9 C1139.699,398.69 1141.015,398.298 1142.387,397.738 L1142.387,396.814 C1141.463,397.22 1140.553,397.528 1139.629,397.752 C1140.399,396.716 1141.365,394.994 1142.541,392.586 L1141.659,392.25 C1141.393,392.824 1141.141,393.37 1140.889,393.902 C1140.301,394.028 1139.713,394.126 1139.139,394.21 C1139.811,393.132 1140.483,391.69 1141.141,389.898 L1140.175,389.52 Z M1144.669,395.75 L1147.147,395.75 L1147.147,397.654 L1144.669,397.654 L1144.669,395.75 Z M1144.669,398.578 L1147.147,398.578 L1147.147,400.706 L1144.669,400.706 L1144.669,398.578 Z M1144.669,401.644 L1150.633,401.644 L1150.633,400.706 L1148.127,400.706 L1148.127,398.578 L1150.115,398.578 L1150.115,397.654 L1148.127,397.654 L1148.127,395.75 L1150.115,395.75 L1150.115,394.812 L1148.127,394.812 L1148.127,392.908 L1150.353,392.908 L1150.353,391.956 L1147.819,391.956 L1148.197,391.816 C1148.015,391.116 1147.763,390.36 1147.455,389.52 L1146.475,389.786 C1146.783,390.486 1147.049,391.214 1147.273,391.956 L1144.725,391.956 C1145.005,391.256 1145.229,390.542 1145.425,389.786 L1144.459,389.59 C1143.997,391.55 1143.213,393.342 1142.107,394.994 L1142.415,396.016 C1142.877,395.4 1143.297,394.77 1143.689,394.098 L1143.689,402.372 L1144.669,402.372 L1144.669,401.644 Z M1147.147,392.908 L1147.147,394.812 L1144.669,394.812 L1144.669,392.908 L1147.147,392.908 Z M1160.139,390.808 C1159.187,390.808 1158.417,391.074 1157.829,391.62 C1157.213,392.166 1156.849,392.922 1156.765,393.888 L1157.899,393.888 C1157.969,393.216 1158.193,392.698 1158.585,392.334 C1158.963,391.97 1159.481,391.802 1160.153,391.802 C1160.797,391.802 1161.315,391.956 1161.679,392.292 C1162.015,392.6 1162.197,393.034 1162.197,393.594 C1162.197,394.154 1162.015,394.588 1161.665,394.896 C1161.315,395.19 1160.811,395.344 1160.139,395.344 L1159.369,395.344 L1159.369,396.24 L1160.181,396.24 C1160.881,396.24 1161.413,396.394 1161.805,396.73 C1162.197,397.066 1162.393,397.528 1162.393,398.13 C1162.393,398.718 1162.183,399.208 1161.791,399.6 C1161.357,400.006 1160.783,400.216 1160.069,400.216 C1159.439,400.216 1158.921,400.034 1158.501,399.698 C1158.011,399.292 1157.745,398.69 1157.717,397.906 L1156.555,397.906 C1156.639,399.026 1157.031,399.88 1157.745,400.468 C1158.347,400.944 1159.117,401.196 1160.069,401.196 C1161.105,401.196 1161.945,400.902 1162.589,400.314 C1163.219,399.74 1163.541,398.998 1163.541,398.088 C1163.541,397.5 1163.373,397.01 1163.037,396.618 C1162.729,396.226 1162.281,395.946 1161.693,395.764 C1162.785,395.4 1163.331,394.644 1163.331,393.524 C1163.331,392.684 1163.037,392.026 1162.463,391.536 C1161.875,391.046 1161.091,390.808 1160.139,390.808 L1160.139,390.808 Z M1174.587,395.526 C1173.831,395.526 1173.257,395.792 1172.865,396.352 C1172.501,396.828 1172.333,397.472 1172.333,398.27 C1172.333,399.054 1172.501,399.684 1172.865,400.188 C1173.257,400.72 1173.831,401 1174.587,401 C1175.329,401 1175.903,400.72 1176.309,400.188 C1176.659,399.698 1176.841,399.054 1176.841,398.27 C1176.841,397.472 1176.659,396.828 1176.309,396.352 C1175.903,395.792 1175.329,395.526 1174.587,395.526 L1174.587,395.526 Z M1173.383,390.808 L1167.769,401.196 L1168.679,401.196 L1174.279,390.808 L1173.383,390.808 Z M1167.475,391.004 C1166.719,391.004 1166.145,391.27 1165.753,391.83 C1165.389,392.306 1165.221,392.95 1165.221,393.748 C1165.221,394.532 1165.389,395.162 1165.753,395.666 C1166.145,396.198 1166.719,396.478 1167.475,396.478 C1168.217,396.478 1168.791,396.198 1169.197,395.666 C1169.547,395.176 1169.729,394.532 1169.729,393.748 C1169.729,392.95 1169.547,392.306 1169.197,391.83 C1168.791,391.27 1168.217,391.004 1167.475,391.004 L1167.475,391.004 Z M1174.587,396.282 C1175.007,396.282 1175.315,396.478 1175.525,396.884 C1175.693,397.22 1175.791,397.682 1175.791,398.27 C1175.791,398.844 1175.693,399.292 1175.525,399.628 C1175.315,400.034 1175.007,400.244 1174.587,400.244 C1174.153,400.244 1173.845,400.034 1173.649,399.642 C1173.467,399.306 1173.383,398.844 1173.383,398.27 C1173.383,397.668 1173.467,397.206 1173.649,396.87 C1173.845,396.478 1174.153,396.282 1174.587,396.282 L1174.587,396.282 Z M1167.475,391.76 C1167.895,391.76 1168.203,391.956 1168.399,392.362 C1168.581,392.698 1168.679,393.16 1168.679,393.748 C1168.679,394.322 1168.581,394.77 1168.413,395.106 C1168.203,395.512 1167.895,395.722 1167.475,395.722 C1167.041,395.722 1166.733,395.512 1166.537,395.12 C1166.355,394.784 1166.271,394.322 1166.271,393.748 C1166.271,393.146 1166.355,392.684 1166.537,392.348 C1166.733,391.956 1167.041,391.76 1167.475,391.76 L1167.475,391.76 Z" id="服务器运维-3%" fill="#B3B3B3" sketch:type="MSShapeGroup"></path>
            <path d="M781.224,394.574 C780.832,396.058 780.258,397.234 779.488,398.116 L780.23,398.774 C781.014,397.892 781.644,396.604 782.12,394.924 L781.224,394.574 Z M784.08,389.604 L784.08,392.306 L780.58,392.306 L780.58,393.272 L784.052,393.272 C783.94,395.148 783.646,396.73 783.142,398.018 C782.498,399.474 781.378,400.636 779.768,401.504 L780.314,402.386 C781.98,401.518 783.184,400.328 783.912,398.788 C784.556,397.36 784.934,395.526 785.074,393.272 L788.56,393.272 C788.476,396.646 788.322,398.844 788.098,399.88 C787.846,400.86 787.356,401.364 786.628,401.364 C786.208,401.364 785.746,401.35 785.27,401.322 L785.55,402.302 L787.132,402.302 C787.832,402.246 788.336,401.938 788.644,401.378 C788.952,400.776 789.176,399.726 789.316,398.228 C789.4,397.318 789.456,396.226 789.512,394.966 C790.184,396.198 790.814,397.598 791.416,399.166 L792.34,398.718 C791.724,397.192 791.08,395.792 790.394,394.504 L789.512,394.938 C789.54,394.126 789.554,393.258 789.582,392.306 L785.116,392.306 L785.116,389.604 L784.08,389.604 Z M797.478,389.702 C796.582,392.376 795.266,394.504 793.516,396.1 L794.3,396.786 C796.008,395.246 797.366,393.006 798.402,390.066 L797.478,389.702 Z M802.252,397.122 L801.342,397.43 C801.93,398.27 802.49,399.194 803.036,400.202 C801.034,400.524 798.892,400.762 796.61,400.902 C797.814,399.39 799.018,397.304 800.222,394.644 L799.242,394.308 C797.548,398.144 796.148,400.356 795.028,400.944 L795.21,401.924 C798.262,401.728 801.02,401.448 803.484,401.056 C803.694,401.476 803.904,401.924 804.114,402.4 L805.052,401.98 C804.268,400.258 803.344,398.634 802.252,397.122 L802.252,397.122 Z M802.042,389.604 L801.188,390.08 C802,392.824 803.456,395.078 805.542,396.814 L806.256,395.988 C804.254,394.336 802.854,392.208 802.042,389.604 L802.042,389.604 Z M820.228,398.648 L819.234,398.326 C819.192,399.446 819.122,400.202 819.01,400.58 C818.898,400.972 818.646,401.168 818.254,401.168 L816.056,401.168 C815.762,401.154 815.622,400.902 815.622,400.426 L815.622,395.834 L819.444,395.834 L819.444,390.164 L814.404,390.164 L814.404,391.116 L818.464,391.116 L818.464,394.854 L814.642,394.854 L814.642,400.79 C814.642,401.672 814.978,402.12 815.65,402.12 L818.422,402.12 C819.094,402.12 819.528,401.896 819.752,401.476 C819.976,401.042 820.13,400.104 820.228,398.648 L820.228,398.648 Z M807.572,390.15 L807.572,391.102 L809.462,391.102 L809.462,392.726 L807.936,392.726 L807.936,402.344 L808.832,402.344 L808.832,401.588 L812.822,401.588 L812.822,402.344 L813.718,402.344 L813.718,392.726 L812.122,392.726 L812.122,391.102 L813.942,391.102 L813.942,390.15 L807.572,390.15 Z M808.832,400.636 L808.832,399.278 L812.822,399.278 L812.822,400.636 L808.832,400.636 Z M809.658,393.65 L809.658,394.56 C809.644,395.848 809.392,396.772 808.888,397.36 L809.42,397.85 C810.008,397.15 810.316,396.058 810.344,394.56 L810.344,393.65 L811.226,393.65 L811.226,396.17 C811.226,396.814 811.52,397.136 812.108,397.136 L812.822,397.136 L812.822,398.354 L808.832,398.354 L808.832,393.65 L809.658,393.65 Z M810.33,392.726 L810.33,391.102 L811.254,391.102 L811.254,392.726 L810.33,392.726 Z M812.822,396.352 L812.276,396.352 C812.038,396.352 811.926,396.226 811.926,395.988 L811.926,393.65 L812.822,393.65 L812.822,396.352 Z M830.49,393.16 L825.576,393.16 C826.22,392.712 826.78,392.208 827.256,391.648 L828.838,391.648 C829.258,392.18 829.804,392.684 830.49,393.16 L830.49,393.16 Z M829.93,391.648 L833.696,391.648 L833.696,390.724 L827.914,390.724 C828.11,390.388 828.292,390.038 828.432,389.674 L827.452,389.562 C827.284,389.968 827.074,390.36 826.808,390.724 L822.034,390.724 L822.034,391.648 L825.996,391.648 C824.974,392.6 823.49,393.384 821.544,393.972 L822.02,394.826 C822.874,394.56 823.658,394.238 824.386,393.874 L824.386,398.2 L821.838,398.2 L821.838,399.11 L825.408,399.11 C824.624,400.538 823.882,401.28 823.196,401.336 L823.448,402.176 C826.276,402.064 828.992,401.826 831.582,401.448 C831.764,401.756 831.946,402.078 832.128,402.428 L833.038,402.022 C832.492,401.028 831.848,400.104 831.106,399.236 L830.238,399.53 C830.518,399.866 830.784,400.23 831.05,400.622 C829.118,400.93 827.088,401.14 824.988,401.252 C825.492,400.748 826.024,400.034 826.584,399.11 L833.878,399.11 L833.878,398.2 L825.366,398.2 L825.366,397.318 L831.862,397.318 L831.862,396.506 L825.366,396.506 L825.366,395.666 L831.862,395.666 L831.862,394.854 L825.366,394.854 L825.366,394 L831.162,394 L831.162,393.58 C831.904,394.014 832.786,394.406 833.808,394.77 L834.256,393.832 C832.324,393.3 830.882,392.572 829.93,391.648 L829.93,391.648 Z M842.754,391.004 C842.418,391.382 842.026,391.718 841.55,392.026 C841.074,392.306 840.598,392.502 840.15,392.628 L840.15,393.776 C841.088,393.496 841.872,393.048 842.502,392.404 L842.502,401 L843.65,401 L843.65,391.004 L842.754,391.004 Z M850.524,391.004 L845.484,397.64 L845.484,398.732 L850.51,398.732 L850.51,401 L851.602,401 L851.602,398.732 L853.226,398.732 L853.226,397.794 L851.602,397.794 L851.602,391.004 L850.524,391.004 Z M850.468,392.502 L850.51,392.502 L850.51,397.794 L846.45,397.794 L850.468,392.502 Z M863.894,395.526 C863.138,395.526 862.564,395.792 862.172,396.352 C861.808,396.828 861.64,397.472 861.64,398.27 C861.64,399.054 861.808,399.684 862.172,400.188 C862.564,400.72 863.138,401 863.894,401 C864.636,401 865.21,400.72 865.616,400.188 C865.966,399.698 866.148,399.054 866.148,398.27 C866.148,397.472 865.966,396.828 865.616,396.352 C865.21,395.792 864.636,395.526 863.894,395.526 L863.894,395.526 Z M862.69,390.808 L857.076,401.196 L857.986,401.196 L863.586,390.808 L862.69,390.808 Z M856.782,391.004 C856.026,391.004 855.452,391.27 855.06,391.83 C854.696,392.306 854.528,392.95 854.528,393.748 C854.528,394.532 854.696,395.162 855.06,395.666 C855.452,396.198 856.026,396.478 856.782,396.478 C857.524,396.478 858.098,396.198 858.504,395.666 C858.854,395.176 859.036,394.532 859.036,393.748 C859.036,392.95 858.854,392.306 858.504,391.83 C858.098,391.27 857.524,391.004 856.782,391.004 L856.782,391.004 Z M863.894,396.282 C864.314,396.282 864.622,396.478 864.832,396.884 C865,397.22 865.098,397.682 865.098,398.27 C865.098,398.844 865,399.292 864.832,399.628 C864.622,400.034 864.314,400.244 863.894,400.244 C863.46,400.244 863.152,400.034 862.956,399.642 C862.774,399.306 862.69,398.844 862.69,398.27 C862.69,397.668 862.774,397.206 862.956,396.87 C863.152,396.478 863.46,396.282 863.894,396.282 L863.894,396.282 Z M856.782,391.76 C857.202,391.76 857.51,391.956 857.706,392.362 C857.888,392.698 857.986,393.16 857.986,393.748 C857.986,394.322 857.888,394.77 857.72,395.106 C857.51,395.512 857.202,395.722 856.782,395.722 C856.348,395.722 856.04,395.512 855.844,395.12 C855.662,394.784 855.578,394.322 855.578,393.748 C855.578,393.146 855.662,392.684 855.844,392.348 C856.04,391.956 856.348,391.76 856.782,391.76 L856.782,391.76 Z" id="办公配套-14%" fill="#B3B3B3" sketch:type="MSShapeGroup"></path>
        </g>
    </g>
</svg>